<?xml version="1.0" encoding="UTF-8"?>
<svg xmlns="http://www.w3.org/2000/svg" version="1.1" width="300" height="300" viewBox="0 0 300 300"><rect x="0" y="0" width="300" height="300" fill="#ffffff"/><g transform="scale(14.286)"><g transform="translate(0,0)"><path fill-rule="evenodd" d="M9 0L9 2L8 2L8 3L9 3L9 4L10 4L10 5L11 5L11 4L12 4L12 5L13 5L13 3L12 3L12 1L13 1L13 0L12 0L12 1L10 1L10 0ZM10 2L10 4L11 4L11 2ZM8 6L8 8L4 8L4 9L3 9L3 8L0 8L0 10L1 10L1 9L3 9L3 10L2 10L2 11L0 11L0 13L1 13L1 12L2 12L2 13L7 13L7 12L8 12L8 17L9 17L9 13L10 13L10 14L11 14L11 16L10 16L10 17L11 17L11 16L12 16L12 15L15 15L15 16L14 16L14 17L13 17L13 18L10 18L10 19L13 19L13 18L14 18L14 17L16 17L16 19L17 19L17 20L18 20L18 19L17 19L17 18L18 18L18 17L19 17L19 18L20 18L20 19L19 19L19 21L21 21L21 20L20 20L20 19L21 19L21 18L20 18L20 16L21 16L21 14L17 14L17 13L16 13L16 12L15 12L15 13L14 13L14 11L18 11L18 9L19 9L19 8L18 8L18 9L17 9L17 10L14 10L14 11L13 11L13 10L12 10L12 9L11 9L11 8L12 8L12 7L13 7L13 6L12 6L12 7L11 7L11 6L10 6L10 7L9 7L9 6ZM10 7L10 8L11 8L11 7ZM13 8L13 9L15 9L15 8ZM4 9L4 11L3 11L3 12L5 12L5 9ZM6 9L6 10L7 10L7 9ZM8 9L8 10L11 10L11 9ZM19 10L19 11L21 11L21 10ZM6 11L6 12L7 12L7 11ZM10 11L10 13L11 13L11 14L12 14L12 13L13 13L13 12L11 12L11 11ZM18 12L18 13L21 13L21 12ZM15 14L15 15L16 15L16 14ZM17 15L17 16L20 16L20 15ZM8 18L8 21L14 21L14 20L9 20L9 18ZM15 20L15 21L16 21L16 20ZM0 0L0 7L7 7L7 0ZM1 1L1 6L6 6L6 1ZM2 2L2 5L5 5L5 2ZM14 0L14 7L21 7L21 0ZM15 1L15 6L20 6L20 1ZM16 2L16 5L19 5L19 2ZM0 14L0 21L7 21L7 14ZM1 15L1 20L6 20L6 15ZM2 16L2 19L5 19L5 16Z" fill="#000000"/></g></g></svg>
